<svg xmlns="http://www.w3.org/2000/svg" id="Layer_1" viewBox="0 0 562.7 1609.3">
  <style>
    .st0{fill:none;stroke:#898989;stroke-width:3;stroke-miterlimit:10;} .st1{fill:none;stroke:#898989;stroke-width:5;stroke-miterlimit:10;} .st2{fill:none;stroke:#898989;stroke-width:2;stroke-miterlimit:10;} .st3{fill:#898989;} .st4{fill:none;stroke:#CCCCCC;stroke-width:2;stroke-miterlimit:10;}
  </style>
  <path d="M109.6 1352.1l-.4 4.7s1.1 5.6 2.2 8.7c1.1 3.1 3.4 17.7 3.4 17.7" class="st0"/>
  <path d="M86.1 1380.2s-1.4 14.2 2.2 24c1.7 4.8 7 6.3 7 6.3l17.5 6.7 4.4-1.3s4.4-2.3 9.4-1.8c6.7.7 25.9 2.6 25.9 2.6s10.7 1.3 16.5-.8 14.2-4.8 14.2-4.8m315.4-30.9s1.4 14.2-2.2 24c-1.7 4.8-7 6.3-7 6.3l-17.5 6.7-4.4-1.3s-4.4-2.3-9.4-1.8c-6.7.7-25.9 2.6-25.9 2.6s-10.7 1.3-16.5-.8-14.2-4.8-14.2-4.8" class="st1"/>
  <path d="M69 1392.7l1.5-5.8s5.4-4.5 13.4-6.1c8-1.5 79.6 3.2 111.7 42.3 0 0 22-10.2 96.8-10.2m-210.2 50.4s-2.2-.7-2.8 1.1c0 0-1.5 37.3 30.2 42.5l57 4.5s10.2 1.5 6.9-5.2c-3.2-6.7-14.7-25.5-14.7-25.5m142.4 31.4H189c-3.9 0-5.4-3.7-5.4-3.7l-9.7-18.3" class="st1"/>
  <path d="M294 1336c-57.6 0-166.3 2.2-166.3 2.2-4.5-13.6 27.8-69.3 27.8-69.3s87.6-7.4 138-7.4" class="st2"/>
  <path d="M299.6 1525.5H197.4s-9.9.5-14 2.4-4.7 1.4-4.7 1.4c-23.1 2.2-85.2 1.1-99-.2s-11.2-27.3-12.1-38.1c-.8-10.8-1.7-40.8-1.7-40.8.4-48.1 3.8-63 4.7-67.5.8-4.5 3.4-5.8 3.4-5.8s9.9-7.2 16-11.7 15.5-10.2 15.5-10.2c7.7-3.9 9.7-14.7 9.7-14.7 18.3-61.4 44-77.4 47-79.8 3-2.3 7.9-2.1 7.9-2.1s58-8.9 124-8.9" class="st1"/>
  <path d="M115.2 1339.9s-17.2-2.2-32.8-2.6l-21.5-1.6m51.1 12.8s1.4-2.8-13.2-3.9-32.9-2.1-32.9-2.1" class="st1"/>
  <path d="M102.6 1338.3s.4-13.9-2.8-20.1c0 0-.5-2.8-5.2-2.2-4.7.5-24.6 4.5-24.6 4.5s-5 1.5-6.8 5.9-3.2 9.9-1.6 12c1.6 2.1 3.2 6.1 16.1 6.9s19.6 1.8 21.1-.7M80.6 1463s45.5 10.2 77.9 17.7c0 0 10.9 5.2 18.2 9.1 10 5.5 15.2 5.5 36.7 6.7 19.6 1.2 80.1 1.3 80.1 1.3" class="st1"/>
  <path d="M160.4 1456.4s48.2 8.4 132.3 8.4" class="st2"/>
  <path d="M67.9 1506.6s.7 35.9 2.9 42.3c0 0 1.6 11.6 8.7 11.6h41s7.1-1.2 9.7-9.7c0 0 1.3-9 1.4-20.6" class="st1"/>
  <path d="M81.1 1529s1 24 3.4 29.7m6-29.3s-.2 18.3 3.2 29.6m7.5-29.4s.3 23.3 2.7 29.1m8-28.7s.2 18.6 1.9 29m7.8-29s-.5 18.6 1.3 29m69.9-151.8c-10.3-19.4-54-58.7-59.1-61.3-5.2-2.6-8-5-8-5l1.9-2.7" class="st2"/>
  <path d="M475.1 1352.1l.4 4.7s-1.1 5.6-2.2 8.7c-1.1 3.1-3.4 17.7-3.4 17.7" class="st0"/>
  <path d="M515.6 1392.7l-1.5-5.8s-5.4-4.5-13.4-6.1c-8-1.5-79.6 3.2-111.7 42.3 0 0-22-10.2-96.8-10.2m210.3 50.4s2.2-.7 2.8 1.1c0 0 1.5 37.3-30.2 42.5l-57 4.5s-10.2 1.5-6.9-5.2c3.2-6.7 14.7-25.5 14.7-25.5m-142.1 31.4h112l5.4-3.7 9.9-18.3" class="st1"/>
  <path d="M290.7 1336c57.6 0 166.3 2.2 166.3 2.2 4.5-13.6-27.8-69.3-27.8-69.3s-87.6-7.4-138-7.4" class="st2"/>
  <path d="M284.6 1525.5h102.7c8.2 0 9.9.5 14 2.4s4.7 1.4 4.7 1.4c23.1 2.2 85.2 1.1 99-.2 13.8-1.3 11.2-27.3 12.1-38.1.8-10.8 1.7-40.8 1.7-40.8-.4-48.1-3.9-63-4.7-67.5-.8-4.5-3.4-5.8-3.4-5.8s-9.9-7.2-16-11.7c-6.1-4.5-15.5-10.2-15.5-10.2-7.7-3.9-9.7-14.7-9.7-14.7-18.3-61.4-44-77.4-47-79.8-3-2.3-7.9-2.1-7.9-2.1s-58.3-8.9-124.2-8.9" class="st1"/>
  <path d="M469.4 1339.9s17.2-2.2 32.8-2.6l21.5-1.6m-51 12.8s-1.4-2.8 13.2-3.9 32.9-2.1 32.9-2.1" class="st1"/>
  <path d="M482.1 1338.3s-.4-13.9 2.8-20.1c0 0 .5-2.8 5.2-2.2 4.7.5 24.6 4.5 24.6 4.5s5 1.5 6.8 5.9c1.8 4.4 3.2 9.9 1.6 12-1.5 2.1-3.2 6.1-16.1 6.9s-19.6 1.8-21.1-.7m-96.4 79.3h-74.3s-6.2-.7-10.8 3.8c-3 3-11.9 14.2-11.9 14.2s-9.3-11.2-12.3-14.3c-4.5-4.5-10.8-3.8-10.8-3.8h-73.1m307.9 39.2s-45.5 10.2-77.9 17.7c0 0-10.9 5.2-18.2 9.1-10 5.5-15.2 5.5-36.7 6.7-19.6 1.2-80.1 1.3-80.1 1.3" class="st1"/>
  <path d="M424.3 1456.4s-48.2 8.4-132.3 8.4" class="st2"/>
  <path d="M516.8 1506.6s-.7 35.9-2.9 42.3c0 0-1.6 11.6-8.7 11.6h-41s-7.1-1.2-9.7-9.7c0 0-1.3-9-1.4-20.6" class="st1"/>
  <path d="M503.6 1529s-1 24-3.4 29.7m-6-29.3s.2 18.3-3.2 29.6m-7.5-29.4s-.3 23.3-2.7 29.1m-8-28.7s-.2 18.6-1.9 29m-7.8-29s.5 18.6-1.3 29m-70-151.8c10.3-19.4 54-58.7 59.1-61.3 5.2-2.6 8-5 8-5l-1.9-2.7" class="st2"/>
  <path d="M292.4 1433.8l2.4-13.8c2.3 0 3.1.2 3.2 1.3 0 0 1.6-.6 2.3-1.7-3.1-1.4-6.2-1.5-6.2-1.5l-1.8 2.2-1.8-2.2s-3.1.1-6.2 1.5c.8 1.2 2.3 1.7 2.3 1.7.1-1.1.8-1.3 3.2-1.3l2.6 13.8z" class="st3"/>
  <path d="M292.4 1417.3c2.5 0 5.3.4 8.3 1.7.4-.7.5-1 .5-1-3.2-1.2-6.2-1.7-8.7-1.7-2.6 0-5.6.4-8.7 1.7l.5 1c2.8-1.3 5.6-1.7 8.1-1.7z" class="st3"/>
  <path d="M65 1156.3V1143h453v13.3M505.5 1595v13.3h-428V1595m470.7-63.5h13.3v31.6h-13.3M105 1228.9v-13.3h371.3v13.3M1 901.9v-13.3h99.6" class="st4"/>
  <path d="M291.2 2.5s46.3-.1 61.7 2.8 21.5 7.2 21.5 7.2 48 20.1 80 48 32.3 89.6 32.3 89.6 4.5 70.5-5.3 111.8l-.8 82.7m.3 38.9s.8 193.5-1.9 271.4c0 0 .5 34.2 3.7 42.7s5 31.3 6.6 51.7c1.6 20.4 1.1 51.1 0 71s-2.2 25.2-4.7 35.5-5.7 14.3-8.3 28.4c-2.7 14-10.6 46.1-15.4 56.2-4.8 10.1-3.4 8.7-13 15.6-9.5 6.9-44.8 23.1-64.4 28.1 0 0-39.5 22.3-95.1 22.3m131.8-47.1s-17.3 16.1-36.6 24.6" class="st1"/>
  <path d="M381.3 27.5s49.8 68.1 69.2 250.2c0 0-48-46.9-159.3-46.9m159.2 46.9s.5 50.6-4.8 85.3-15.1 106.5-17 139.4-9.3 165.6-13.5 271.4c0 0-3.7 76.1-8.7 116.9-5 40.8-56.4 53-56.4 53s-25.4 7.2-61.5 7.2m172.8-629.4s7.2 16.7 30.2 32.3c0 0 11.9 9 20.7 19.3 8.7 10.3 6.4 25.4 6.4 25.4L476.5 381v-13.3s-6.4-7.7-11.4-1.9h-3.7c-.1.2-5.7-32.9-.1-44.3z" class="st1"/>
  <path d="M465 366s15.8 350.3-31.9 454.2l2.5-262.9s4.5-77.4 10.6-124c6.1-46.6 12.6-88.8 12.6-88.8" class="st2"/>
  <path d="M469.5 117.1s4.5-31-22-51.7c0 0-24.4-21.7-66.3-37.9l14.6 14.6 46.4 34.7s9.1 7.4 16.6 20.9l10.7 19.4z" class="st1"/>
  <path d="M442.2 76.8s14.7 65.5 16.6 148.7c0 0 1.4 31.8-8.4 54.6m30.6 28.1s-19.4.8-19.7 13.2m19.7 215l-13.9 7.9m20.4 182s-1.1 27.1-6.5 38c0 0-1.7 7.4-9.1 1.6L452 749.8" class="st2"/>
  <path d="M433.7 817.1l-.7 147.3m.6-512.3s-54.5-30.4-142.4-30.4" class="st1"/>
  <path d="M430 485.8s-50.8-30.4-138.8-30.4m114.9 19.5l-2.3 299.5m1.1-160.1H290.1m160.3-336.6l10.9 43.8M433 787.3s-10.3-17.5-17.8-13.5c0 0-57.2 3.7-124 3.7m186.5-434.8s2.4 21.7-1.3 25.1" class="st2"/>
  <path d="M291.5 2.5s-46.3-.1-61.7 2.8-21.5 7.2-21.5 7.2-48 20.1-80 48S95.9 150 95.9 150s-4.5 70.5 5.3 111.8l.8 82.7m-.2 39s-.8 193.5 1.9 271.4c0 0-.5 34.2-3.7 42.7s-5 31.3-6.6 51.7c-1.6 20.4-1.1 51.1 0 71s2.2 25.2 4.7 35.5 5.7 14.3 8.3 28.4c2.7 14 10.6 46.1 15.4 56.2 4.8 10.1 3.4 8.7 13 15.6 9.5 6.9 44.8 23.1 64.4 28.1 0 0 39.5 22.3 95.1 22.3m-131.8-47.1s17.3 16.1 36.6 24.6" class="st1"/>
  <path d="M201.4 27.5s-49.8 68.1-69.2 250.2c0 0 48-46.9 159.3-46.9m-159.2 46.9s-.5 50.6 4.8 85.3c5.3 34.7 15.1 106.5 17 139.4s9.3 165.6 13.5 271.4c0 0 3.7 76.1 8.7 116.9 5 40.8 56.4 53 56.4 53s25.4 7.2 61.5 7.2M121.4 321.5s-7.2 16.7-30.2 32.3c0 0-11.9 9-20.7 19.3s-6.4 25.4-6.4 25.4l42.1-17.5v-13.3s6.4-7.7 11.4-1.9h3.7c.1.2 5.7-32.9.1-44.3z" class="st1"/>
  <path d="M117.7 366s-15.8 350.3 31.9 454.2l-2.5-262.9s-4.5-77.4-10.6-124c-6.1-46.6-12.6-88.8-12.6-88.8" class="st2"/>
  <path d="M113.2 117.1s-4.5-31 22-51.7c0 0 24.4-21.7 66.3-37.9l-14.6 14.6-46.4 34.7s-9.1 7.4-16.6 20.9l-10.7 19.4z" class="st1"/>
  <path d="M140.5 76.8s-14.7 65.5-16.6 148.7c0 0-1.4 31.8 8.4 54.6m-30.6 28.1s19.4.8 19.7 13.2m-19.7 215l13.9 7.9m-20.4 182s1.1 27.1 6.5 38c0 0 1.7 7.4 9.1 1.6l19.9-16.1" class="st2"/>
  <path d="M149 817.1l.7 147.3m-.6-512.3s54.5-30.4 142.4-30.4" class="st1"/>
  <path d="M152.7 485.8s50.8-30.4 138.8-30.4m-114.9 19.5l2.3 299.5m-1.1-160.1h114.8M132.3 277.7l-10.9 43.8m28.3 465.8s10.3-17.5 17.8-13.5c0 0 57.2 3.7 124 3.7M105 342.7s-2.4 21.7 1.3 25.1" class="st2"/>
  <path d="M45.7 790H32.4V187.8h13.3M548.4 2.5h13.3v1002.3h-13.3" class="st4"/>
</svg>
